<svg width="762" height="171" viewBox="0 0 762 171" xmlns="http://www.w3.org/2000/svg"><g fill="none" fill-rule="evenodd"><path d="M237.992 26.636c-2.794-10.454-11.028-18.686-21.482-21.48C197.562.078 121.584.078 121.584.078s-75.978 0-94.926 5.078C16.204 7.95 7.97 16.182 5.176 26.636.1 45.584.1 85.118.1 85.118s0 39.534 5.076 58.48c2.794 10.456 11.028 18.69 21.482 21.482 18.948 5.078 94.926 5.078 94.926 5.078s75.978 0 94.926-5.078c10.454-2.792 18.688-11.028 21.482-21.482 5.078-18.946 5.078-58.48 5.078-58.48s0-39.534-5.078-58.482" fill="red"/><path d="M97.288 121.564l63.124-36.446L97.288 48.67v72.894z" fill="#FFF"/><path d="M352.77 154.806c-4.808-3.24-8.226-8.282-10.25-15.118-2.028-6.832-3.042-15.926-3.042-27.28V96.946c0-11.468 1.156-20.678 3.476-27.626 2.314-6.95 5.934-12.018 10.858-15.204 4.922-3.184 11.382-4.778 19.374-4.778 7.876 0 14.188 1.622 18.938 4.866 4.75 3.242 8.224 8.312 10.426 15.202 2.198 6.892 3.302 16.072 3.302 27.542v15.462c0 11.354-1.072 20.476-3.214 27.368-2.144 6.89-5.62 11.932-10.426 15.116-4.808 3.186-11.324 4.778-19.548 4.778-8.456-.004-15.088-1.624-19.894-4.866m26.932-16.682c1.33-3.472 1.998-9.148 1.998-17.026v-33.19c0-7.644-.668-13.232-1.998-16.766-1.334-3.532-3.68-5.3-7.038-5.3-3.244 0-5.532 1.768-6.862 5.3-1.334 3.534-1.998 9.122-1.998 16.766v33.19c0 7.876.634 13.552 1.91 17.026 1.274 3.476 3.59 5.21 6.95 5.21 3.358 0 5.704-1.734 7.038-5.21M721.812 112.664v5.384c0 6.836.2 11.962.608 15.378.404 3.418 1.242 5.908 2.522 7.472 1.274 1.56 3.238 2.346 5.906 2.346 3.59 0 6.05-1.39 7.382-4.172 1.33-2.782 2.056-7.412 2.172-13.9l20.678 1.216c.118.93.174 2.204.174 3.82 0 9.85-2.694 17.206-8.08 22.07-5.382 4.864-13.004 7.296-22.848 7.296-11.814 0-20.098-3.706-24.848-11.122-4.752-7.412-7.124-18.878-7.124-34.402V95.456c0-15.986 2.458-27.654 7.384-35.01 4.922-7.354 13.35-11.032 25.284-11.032 8.22 0 14.536 1.506 18.938 4.516 4.4 3.014 7.5 7.706 9.294 14.074 1.796 6.372 2.696 15.178 2.696 26.412v18.244h-40.138v.004zm3.04-44.83c-1.214 1.506-2.03 3.968-2.434 7.384-.408 3.418-.608 8.6-.608 15.55v7.646h17.548v-7.646c0-6.832-.232-12.016-.696-15.55-.462-3.532-1.3-6.022-2.52-7.47-1.216-1.45-3.098-2.174-5.646-2.174s-4.428.758-5.644 2.26zM294.382 110.668l-27.28-98.52h23.804l9.556 44.656c2.434 11.006 4.228 20.388 5.386 28.148h.696c.81-5.56 2.606-14.884 5.386-27.974l9.904-44.83h23.804l-27.626 98.52v47.264h-23.63v-47.264zM483.27 51.422v106.51h-18.766l-2.086-13.032h-.52c-5.098 9.846-12.744 14.768-22.936 14.768-7.066 0-12.28-2.314-15.638-6.95-3.36-4.632-5.038-11.874-5.038-21.718V51.42h23.976v78.188c0 4.752.524 8.138 1.564 10.164 1.042 2.03 2.778 3.042 5.212 3.042 2.086 0 4.084-.634 5.994-1.912 1.912-1.274 3.33-2.894 4.258-4.864V51.42h23.98v.002zM606.262 51.422v106.51h-18.766L585.41 144.9h-.52c-5.1 9.846-12.744 14.768-22.936 14.768-7.066 0-12.28-2.314-15.638-6.95-3.36-4.632-5.038-11.874-5.038-21.718V51.42h23.976v78.188c0 4.752.522 8.138 1.562 10.164 1.044 2.03 2.78 3.042 5.214 3.042 2.086 0 4.084-.634 5.994-1.912 1.912-1.274 3.328-2.894 4.258-4.864V51.42h23.98v.002z" fill="#282828"/><path d="M548.426 31.44h-23.802v126.492h-23.458V31.44h-23.802V12.152h71.062V31.44zM685.62 68.448c-1.448-6.716-3.792-11.582-7.036-14.596-3.244-3.008-7.708-4.516-13.38-4.516-4.402 0-8.514 1.246-12.336 3.736-3.822 2.49-6.776 5.764-8.86 9.818h-.176l.002-56.124h-23.112v151.166h19.806l2.434-10.078h.524c1.852 3.59 4.628 6.43 8.34 8.516 3.704 2.084 7.818 3.126 12.338 3.126 8.104 0 14.072-3.736 17.892-11.208 3.822-7.472 5.734-19.14 5.734-35.014V96.422c.002-11.928-.72-21.256-2.17-27.974zm-21.978 43.446c0 7.762-.318 13.844-.958 18.244-.636 4.404-1.708 7.532-3.214 9.38-1.506 1.856-3.536 2.782-6.08 2.782-1.968 0-3.792-.46-5.47-1.39-1.682-.926-3.042-2.314-4.084-4.17V76.274c.806-2.894 2.198-5.27 4.17-7.124 1.966-1.85 4.108-2.78 6.428-2.78 2.432 0 4.314.956 5.648 2.866 1.33 1.912 2.258 5.126 2.778 9.646.522 4.516.784 10.944.784 19.284v13.728h-.002z" fill="#282828"/></g></svg>